<?xml version="1.0" encoding="UTF-8" standalone="no"?>
<!DOCTYPE svg PUBLIC "-//W3C//DTD SVG 1.1//EN" "http://www.w3.org/Graphics/SVG/1.1/DTD/svg11.dtd">
<svg width="100%" height="100%" viewBox="0 0 1754 2004" version="1.1" xmlns="http://www.w3.org/2000/svg" xmlns:xlink="http://www.w3.org/1999/xlink" xml:space="preserve" xmlns:serif="http://www.serif.com/" style="fill-rule:evenodd;clip-rule:evenodd;stroke-linejoin:round;stroke-miterlimit:2;">
    <g transform="matrix(1,0,0,1,-1123.29,-1107.71)">
        <g transform="matrix(3.91388,0,0,3.91388,1123.29,1107.71)">
            <path d="M320,0L128,0C110.3,0 96,14.3 96,32C96,49.7 110.3,64 128,64L128,196.8C128,208.6 124.7,220.3 118.5,230.3L10.3,406.2C3.6,417.2 0,429.7 0,442.6C0,480.9 31.1,512 69.4,512L378.6,512C416.9,512 448,480.9 448,442.6C448,429.8 444.4,417.2 437.7,406.2L329.5,230.4C323.3,220.3 320,208.7 320,196.9L320,64C337.7,64 352,49.7 352,32C352,14.3 337.7,0 320,0ZM192,196.8L192,64L256,64L256,196.8C256,220.5 262.6,243.7 275,263.9L309.5,320L138.5,320L173,263.9C185.4,243.7 192,220.5 192,196.8Z" style="fill:rgb(255,96,96);fill-rule:nonzero;"/>
        </g>
    </g>
</svg>