<?xml version="1.0" encoding="UTF-8" standalone="no"?>
<!DOCTYPE svg PUBLIC "-//W3C//DTD SVG 1.1//EN" "http://www.w3.org/Graphics/SVG/1.1/DTD/svg11.dtd">
<svg width="100%" height="100%" viewBox="0 0 4000 4000" version="1.1" xmlns="http://www.w3.org/2000/svg" xmlns:xlink="http://www.w3.org/1999/xlink" xml:space="preserve" xmlns:serif="http://www.serif.com/" style="fill-rule:evenodd;clip-rule:evenodd;stroke-linejoin:round;stroke-miterlimit:2;">
    <rect x="0" y="0" width="4000" height="4000" style="fill:rgb(88,101,242);"/>
    <path d="M2000,618.988C2132.93,618.988 2242.31,728.372 2242.31,861.301C2242.31,950.957 2193.85,1029.71 2121.16,1070.9L2121.16,1224.77L2242.31,1224.77C2707.56,1224.77 3090.41,1607.61 3090.41,2072.87L3211.56,2072.87C3278.03,2072.87 3332.72,2127.56 3332.72,2194.02L3332.72,2557.49C3332.72,2623.95 3278.03,2678.65 3211.56,2678.65L3090.41,2678.65L3090.41,2799.8C3090.41,2932.73 2981.02,3042.12 2848.1,3042.12L1151.9,3042.12C1018.98,3042.12 909.593,2932.73 909.593,2799.8L909.593,2678.65L788.436,2678.65C721.972,2678.65 667.28,2623.95 667.28,2557.49L667.28,2194.02C667.28,2127.56 721.972,2072.87 788.436,2072.87L909.593,2072.87C909.593,1607.61 1292.44,1224.77 1757.69,1224.77L1878.84,1224.77L1878.84,1070.9C1806.15,1029.71 1757.69,950.957 1757.69,861.301C1757.69,728.372 1867.07,618.988 2000,618.988M1454.8,1951.71C1288.63,1951.71 1151.9,2088.44 1151.9,2254.6C1151.9,2420.76 1288.63,2557.49 1454.8,2557.49C1620.96,2557.49 1757.69,2420.76 1757.69,2254.6C1757.69,2088.44 1620.96,1951.71 1454.8,1951.71M2545.21,1951.71C2379.05,1951.71 2242.32,2088.44 2242.32,2254.6C2242.32,2420.76 2379.05,2557.49 2545.21,2557.49C2711.37,2557.49 2848.1,2420.76 2848.1,2254.6C2848.1,2088.44 2711.37,1951.71 2545.21,1951.71Z" style="fill:white;fill-rule:nonzero;"/>
</svg>
