<?xml version="1.0" encoding="UTF-8" standalone="no"?><!DOCTYPE svg PUBLIC "-//W3C//DTD SVG 1.1//EN" "http://www.w3.org/Graphics/SVG/1.1/DTD/svg11.dtd"><svg width="100%" height="100%" viewBox="0 0 4000 4000" version="1.1" xmlns="http://www.w3.org/2000/svg" xmlns:xlink="http://www.w3.org/1999/xlink" xml:space="preserve" xmlns:serif="http://www.serif.com/" style="fill-rule:evenodd;clip-rule:evenodd;stroke-linejoin:round;stroke-miterlimit:2;"><rect x="0" y="0" width="4000" height="4000" style="fill:#ff6060;"/><path d="M2000,618.988c132.929,0 242.313,109.384 242.313,242.313c-0,89.656 -48.463,168.407 -121.157,209.601l0,153.868l121.157,0c465.251,0 848.094,382.844 848.094,848.095l121.157,-0c66.464,-0 121.156,54.692 121.156,121.156l0,363.469c0,66.465 -54.692,121.157 -121.156,121.157l-121.157,-0l0,121.156c0,132.929 -109.384,242.313 -242.312,242.313l-1696.19,-0c-132.928,-0 -242.312,-109.384 -242.312,-242.313l-0,-121.156l-121.157,-0c-66.464,-0 -121.156,-54.692 -121.156,-121.157l-0,-363.469c-0,-66.464 54.692,-121.156 121.156,-121.156l121.157,-0c-0,-465.251 382.843,-848.095 848.094,-848.095l121.157,0l-0,-153.868c-72.694,-41.194 -121.157,-119.945 -121.157,-209.601c0,-132.929 109.384,-242.313 242.313,-242.313m-545.204,1332.72c-166.161,0 -302.891,136.73 -302.891,302.891c0,166.161 136.73,302.891 302.891,302.891c166.161,0 302.891,-136.73 302.891,-302.891c0,-166.161 -136.73,-302.891 -302.891,-302.891m1090.41,0c-166.161,0 -302.891,136.73 -302.891,302.891c-0,166.161 136.73,302.891 302.891,302.891c166.161,0 302.891,-136.73 302.891,-302.891c-0,-166.161 -136.73,-302.891 -302.891,-302.891Z" style="fill:#fff;fill-rule:nonzero;"/></svg>