<?xml version="1.0" encoding="UTF-8" standalone="no"?>
<!DOCTYPE svg PUBLIC "-//W3C//DTD SVG 1.1//EN" "http://www.w3.org/Graphics/SVG/1.1/DTD/svg11.dtd">
<svg width="100%" height="100%" viewBox="0 0 100 100" version="1.1" xmlns="http://www.w3.org/2000/svg" xmlns:xlink="http://www.w3.org/1999/xlink" xml:space="preserve" xmlns:serif="http://www.serif.com/" style="fill-rule:evenodd;clip-rule:evenodd;stroke-linejoin:round;stroke-miterlimit:2;"><path d="M50,4.545c4.987,0 9.091,4.104 9.091,9.091c-0,3.364 -1.818,6.319 -4.546,7.864l0,5.773l4.546,-0c17.455,-0 31.818,14.363 31.818,31.818l4.546,-0c2.493,-0 4.545,2.052 4.545,4.545l0,13.637c0,2.493 -2.052,4.545 -4.545,4.545l-4.546,0l0,4.546c0,4.987 -4.104,9.091 -9.091,9.091l-63.636,-0c-4.987,-0 -9.091,-4.104 -9.091,-9.091l-0,-4.546l-4.546,0c-2.493,0 -4.545,-2.052 -4.545,-4.545l-0,-13.637c-0,-2.493 2.052,-4.545 4.545,-4.545l4.546,-0c-0,-17.455 14.363,-31.818 31.818,-31.818l4.546,-0l-0,-5.773c-2.728,-1.545 -4.546,-4.5 -4.546,-7.864c0,-4.987 4.104,-9.091 9.091,-9.091m-20.455,50c-6.233,0 -11.363,5.13 -11.363,11.364c-0,6.234 5.13,11.364 11.363,11.364c6.234,-0 11.364,-5.13 11.364,-11.364c0,-6.234 -5.13,-11.364 -11.364,-11.364m40.91,0c-6.234,0 -11.364,5.13 -11.364,11.364c-0,6.234 5.13,11.364 11.364,11.364c6.233,-0 11.363,-5.13 11.363,-11.364c0,-6.234 -5.13,-11.364 -11.363,-11.364Z" style="fill:#ff5c5e;fill-rule:nonzero;"/></svg>