<?xml version="1.0" encoding="UTF-8" standalone="no"?>
<!DOCTYPE svg PUBLIC "-//W3C//DTD SVG 1.1//EN" "http://www.w3.org/Graphics/SVG/1.1/DTD/svg11.dtd">
<svg width="100%" height="100%" viewBox="0 0 24 24" version="1.1" xmlns="http://www.w3.org/2000/svg" xmlns:xlink="http://www.w3.org/1999/xlink" xml:space="preserve" xmlns:serif="http://www.serif.com/" style="fill-rule:evenodd;clip-rule:evenodd;stroke-linejoin:round;stroke-miterlimit:2;">
    <g>
        <path d="M21.412,12.022C21.412,12.951 19.906,13.645 19.624,14.481C19.342,15.316 20.142,16.834 19.624,17.528C19.106,18.222 17.459,17.94 16.73,18.469C16,18.998 15.8,20.634 14.918,20.928C14.035,21.222 12.953,19.987 12.012,19.987C11.071,19.987 9.953,21.163 9.106,20.928C8.259,20.693 8.023,18.998 7.294,18.469C6.564,17.94 4.941,18.257 4.4,17.528C3.858,16.798 4.67,15.363 4.4,14.481C4.129,13.598 2.588,12.951 2.588,12.022C2.588,11.092 4.094,10.398 4.376,9.563C4.658,8.727 3.858,7.21 4.376,6.516C4.894,5.821 6.553,6.104 7.294,5.574C8.035,5.045 8.212,3.409 9.094,3.08C9.976,2.751 11.059,4.057 12,4.057C12.941,4.057 14.059,2.88 14.906,3.115C15.753,3.351 15.977,5.045 16.706,5.574C17.436,6.104 19.059,5.786 19.6,6.516C20.142,7.245 19.33,8.68 19.6,9.563C19.871,10.445 21.412,11.092 21.412,12.022ZM11.4,15.585L16,9.415L14.64,8.415L11,13.205L9,11.675L8,13.035L11.4,15.585Z" style="fill:rgb(152,154,162);"/>
    </g>
</svg>
